<?xml version="1.0" encoding="UTF-8"?>
<svg xmlns="http://www.w3.org/2000/svg" xmlns:xlink="http://www.w3.org/1999/xlink" width="1280" height="720" viewBox="0 0 1280 720">
<defs>
<g>
<g id="glyph-0-0">
<path d="M 1.023438 -3.847656 L 1.457031 -3.847656 C 1.449219 -3.40625 1.429688 -2.996094 1.394531 -2.625 L 0.433594 -2.625 L 0.433594 -2.203125 L 1.347656 -2.203125 C 1.324219 -2.027344 1.296875 -1.851562 1.265625 -1.6875 C 1.097656 -0.9375 0.753906 -0.320312 0.242188 0.171875 L 0.53125 0.523438 C 1.035156 0.0585938 1.386719 -0.523438 1.589844 -1.214844 C 1.832031 -0.972656 2.128906 -0.621094 2.480469 -0.160156 L 2.753906 -0.5625 C 2.394531 -0.957031 2.039062 -1.308594 1.6875 -1.617188 C 1.6875 -1.628906 1.691406 -1.636719 1.691406 -1.640625 C 1.726562 -1.820312 1.757812 -2.007812 1.78125 -2.203125 L 2.664062 -2.203125 L 2.664062 -2.625 L 1.828125 -2.625 C 1.867188 -2.996094 1.886719 -3.40625 1.890625 -3.847656 L 2.632812 -3.847656 L 2.632812 -4.273438 L 1.164062 -4.273438 C 1.234375 -4.523438 1.296875 -4.796875 1.359375 -5.105469 L 0.945312 -5.21875 C 0.804688 -4.464844 0.582031 -3.832031 0.289062 -3.324219 L 0.613281 -3.023438 C 0.765625 -3.253906 0.902344 -3.527344 1.023438 -3.847656 Z M 5.667969 -1.308594 L 5.667969 -3.449219 L 3.398438 -3.449219 L 3.398438 -4.542969 L 5.941406 -4.542969 L 5.941406 -4.984375 L 2.953125 -4.984375 L 2.953125 0.394531 L 6.058594 0.394531 L 6.058594 -0.0429688 L 3.398438 -0.0429688 L 3.398438 -1.308594 Z M 3.398438 -3.035156 L 5.234375 -3.035156 L 5.234375 -1.730469 L 3.398438 -1.730469 Z "/>
</g>
<g id="glyph-0-1">
<path d="M 2.53125 -4.332031 L 2.53125 -3.898438 L 3.335938 -3.898438 C 3.132812 -3.347656 2.902344 -2.886719 2.652344 -2.515625 L 2.746094 -2.128906 L 4.179688 -2.128906 L 4.179688 -1.285156 L 2.503906 -1.285156 L 2.503906 -0.855469 L 4.179688 -0.855469 L 4.179688 0.601562 L 4.621094 0.601562 L 4.621094 -0.855469 L 6.03125 -0.855469 L 6.03125 -1.285156 L 4.621094 -1.285156 L 4.621094 -2.128906 L 5.769531 -2.128906 L 5.769531 -2.535156 L 4.621094 -2.535156 L 4.621094 -3.480469 L 4.179688 -3.480469 L 4.179688 -2.535156 L 3.183594 -2.535156 C 3.40625 -2.933594 3.609375 -3.386719 3.800781 -3.898438 L 5.910156 -3.898438 L 5.910156 -4.332031 L 3.957031 -4.332031 C 4.03125 -4.574219 4.109375 -4.835938 4.183594 -5.105469 L 3.746094 -5.207031 C 3.660156 -4.902344 3.578125 -4.613281 3.488281 -4.332031 Z M 0.515625 -4.84375 L 0.515625 0.632812 L 0.964844 0.632812 L 0.964844 -4.410156 L 1.808594 -4.410156 C 1.667969 -3.886719 1.480469 -3.304688 1.238281 -2.65625 C 1.617188 -2.140625 1.808594 -1.667969 1.808594 -1.246094 C 1.808594 -1.117188 1.777344 -1.023438 1.710938 -0.972656 C 1.648438 -0.921875 1.519531 -0.886719 1.34375 -0.875 C 1.277344 -0.875 1.195312 -0.886719 1.09375 -0.902344 L 1.246094 -0.429688 C 1.640625 -0.433594 1.917969 -0.511719 2.078125 -0.65625 C 2.191406 -0.78125 2.25 -0.976562 2.25 -1.246094 C 2.222656 -1.691406 2.03125 -2.183594 1.6875 -2.722656 C 1.902344 -3.328125 2.097656 -3.917969 2.253906 -4.480469 L 2.253906 -4.84375 Z "/>
</g>
<g id="glyph-0-2">
<rect x="0" y="0" width="0" height="0" mask="url(#mask-0)"/>
</g>
<g id="glyph-0-3">
<path d="M 2.460938 -2.121094 L 2.460938 -1.679688 L 4.886719 -1.679688 L 4.886719 -0.0703125 C 4.886719 0.113281 4.78125 0.210938 4.574219 0.210938 C 4.324219 0.210938 4.0625 0.199219 3.789062 0.179688 L 3.886719 0.621094 L 4.734375 0.621094 C 5.144531 0.621094 5.347656 0.429688 5.347656 0.0429688 L 5.347656 -1.679688 L 6.121094 -1.679688 L 6.121094 -2.121094 L 5.347656 -2.121094 L 5.347656 -2.765625 L 4.886719 -2.765625 L 4.886719 -2.121094 Z M 1.617188 -5.21875 L 1.617188 -2.039062 C 1.078125 -1.566406 0.625 -1.207031 0.242188 -0.976562 L 0.449219 -0.535156 C 0.804688 -0.773438 1.195312 -1.085938 1.617188 -1.480469 L 1.617188 0.632812 L 2.082031 0.632812 L 2.082031 -5.21875 Z M 3.273438 -1.417969 L 2.933594 -1.207031 C 3.265625 -0.816406 3.535156 -0.460938 3.730469 -0.140625 L 4.089844 -0.394531 C 3.898438 -0.691406 3.628906 -1.027344 3.273438 -1.417969 Z M 3.71875 -4.324219 L 5.378906 -4.324219 C 5.167969 -3.957031 4.824219 -3.636719 4.34375 -3.375 C 4.132812 -3.570312 3.910156 -3.757812 3.675781 -3.929688 L 3.347656 -3.679688 C 3.546875 -3.539062 3.75 -3.378906 3.957031 -3.1875 C 3.570312 -3.035156 3.132812 -2.902344 2.625 -2.792969 L 2.855469 -2.382812 C 4.503906 -2.761719 5.515625 -3.417969 5.878906 -4.351562 L 5.878906 -4.746094 L 4.011719 -4.746094 C 4.082031 -4.875 4.148438 -5.003906 4.203125 -5.136719 L 3.730469 -5.226562 C 3.488281 -4.644531 3.023438 -4.179688 2.324219 -3.832031 L 2.621094 -3.476562 C 3.0625 -3.707031 3.425781 -3.988281 3.71875 -4.324219 Z M 0.644531 -4.472656 L 0.25 -4.3125 C 0.53125 -3.917969 0.785156 -3.449219 1.015625 -2.914062 L 1.417969 -3.078125 C 1.203125 -3.570312 0.945312 -4.039062 0.644531 -4.472656 Z "/>
</g>
<g id="glyph-0-4">
<path d="M 3.144531 -4.433594 L 3.144531 -0.0898438 L 1.800781 -0.0898438 L 1.800781 -3.15625 L 1.355469 -3.15625 L 1.355469 -0.0898438 L 0.351562 -0.0898438 L 0.351562 0.359375 L 6.042969 0.359375 L 6.042969 -0.0898438 L 3.609375 -0.0898438 L 3.609375 -2.132812 L 5.449219 -2.132812 L 5.449219 -2.574219 L 3.609375 -2.574219 L 3.609375 -4.433594 L 5.777344 -4.433594 L 5.777344 -4.886719 L 0.726562 -4.886719 L 0.726562 -4.433594 Z "/>
</g>
<g id="glyph-0-5">
<path d="M 0.414062 -4.273438 L 0.414062 -3.832031 L 2.199219 -3.832031 C 2.191406 -3.617188 2.179688 -3.308594 2.160156 -2.90625 C 2.128906 -2.300781 2.007812 -1.75 1.789062 -1.257812 C 1.566406 -0.765625 1.113281 -0.238281 0.433594 0.339844 L 0.765625 0.65625 C 1.328125 0.203125 1.761719 -0.292969 2.078125 -0.84375 C 2.308594 -1.265625 2.464844 -1.730469 2.550781 -2.25 L 4.785156 -2.25 C 4.773438 -1.367188 4.753906 -0.785156 4.714844 -0.515625 C 4.640625 -0.0703125 4.441406 0.160156 4.113281 0.171875 C 3.890625 0.171875 3.617188 0.167969 3.285156 0.152344 L 3.425781 0.570312 C 3.707031 0.582031 3.957031 0.59375 4.160156 0.59375 C 4.664062 0.574219 4.976562 0.292969 5.105469 -0.25 C 5.1875 -0.605469 5.238281 -1.417969 5.253906 -2.683594 L 2.601562 -2.683594 L 2.601562 -2.695312 L 2.65625 -3.832031 L 6.027344 -3.832031 L 6.027344 -4.273438 L 3.636719 -4.273438 C 3.480469 -4.652344 3.316406 -4.976562 3.136719 -5.246094 L 2.703125 -5.085938 C 2.886719 -4.832031 3.042969 -4.554688 3.167969 -4.273438 Z "/>
</g>
<g id="glyph-0-6">
<path d="M 0.394531 -4.972656 L 0.394531 -4.535156 L 1.054688 -4.535156 L 1.054688 -2.691406 L 0.28125 -2.691406 L 0.28125 -2.25 L 1.046875 -2.25 C 1.003906 -1.085938 0.746094 -0.230469 0.28125 0.320312 L 0.625 0.621094 C 1.167969 0.0078125 1.46875 -0.953125 1.519531 -2.25 L 2.480469 -2.25 L 2.480469 0.59375 L 2.945312 0.59375 L 2.945312 -2.25 L 3.679688 -2.25 L 3.679688 -2.691406 L 2.945312 -2.691406 L 2.945312 -4.535156 L 3.585938 -4.535156 L 3.585938 -4.972656 Z M 1.527344 -4.535156 L 2.480469 -4.535156 L 2.480469 -2.691406 L 1.527344 -2.691406 Z M 5.449219 -5.203125 C 4.964844 -4.675781 4.351562 -4.253906 3.609375 -3.9375 L 3.808594 -3.515625 C 4.585938 -3.871094 5.234375 -4.320312 5.75 -4.855469 Z M 5.726562 -3.46875 C 5.238281 -2.90625 4.625 -2.445312 3.878906 -2.101562 L 4.078125 -1.6875 C 4.855469 -2.070312 5.5 -2.550781 6.027344 -3.125 Z M 5.886719 -1.699219 C 5.269531 -0.921875 4.5 -0.292969 3.558594 0.179688 L 3.757812 0.605469 C 4.726562 0.0898438 5.539062 -0.5625 6.191406 -1.355469 Z "/>
</g>
<g id="glyph-0-7">
<path d="M 2.582031 -4.191406 L 2.582031 -3.75 L 5.957031 -3.75 L 5.957031 -4.191406 L 4.511719 -4.191406 C 4.421875 -4.574219 4.320312 -4.921875 4.210938 -5.21875 L 3.746094 -5.144531 C 3.859375 -4.851562 3.96875 -4.535156 4.058594 -4.191406 Z M 2.414062 -0.078125 L 2.414062 0.371094 L 6.101562 0.371094 L 6.101562 -0.078125 L 4.851562 -0.078125 C 5.144531 -0.996094 5.394531 -2.042969 5.597656 -3.21875 L 5.15625 -3.335938 C 4.933594 -2.03125 4.675781 -0.945312 4.382812 -0.078125 Z M 3.316406 -3.265625 L 2.894531 -3.132812 C 3.105469 -2.25 3.285156 -1.335938 3.425781 -0.390625 L 3.851562 -0.5 C 3.699219 -1.539062 3.519531 -2.460938 3.316406 -3.265625 Z M 2.429688 -2.695312 C 2.183594 -2.5625 1.941406 -2.433594 1.691406 -2.320312 L 1.691406 -3.605469 L 2.402344 -3.605469 L 2.402344 -4.042969 L 1.691406 -4.042969 L 1.691406 -5.203125 L 1.226562 -5.203125 L 1.226562 -4.042969 L 0.351562 -4.042969 L 0.351562 -3.605469 L 1.226562 -3.605469 L 1.226562 -2.128906 C 0.914062 -2.011719 0.585938 -1.910156 0.253906 -1.828125 L 0.371094 -1.367188 C 0.65625 -1.457031 0.945312 -1.558594 1.226562 -1.667969 L 1.226562 -0.101562 C 1.226562 0.078125 1.136719 0.167969 0.964844 0.167969 C 0.796875 0.167969 0.625 0.152344 0.449219 0.140625 L 0.550781 0.585938 L 1.125 0.585938 C 1.5 0.585938 1.691406 0.394531 1.691406 0.0117188 L 1.691406 -1.867188 C 1.941406 -1.980469 2.183594 -2.101562 2.429688 -2.230469 Z "/>
</g>
<g id="glyph-0-8">
<path d="M 2.722656 -2.503906 L 3.839844 -2.503906 L 3.839844 -1.570312 L 2.722656 -1.570312 Z M 3.839844 -1.148438 L 3.839844 0.640625 L 4.292969 0.640625 L 4.292969 -1.148438 L 5.429688 -1.148438 L 5.429688 -0.835938 L 5.871094 -0.835938 L 5.871094 -4.261719 L 4.292969 -4.261719 L 4.292969 -5.195312 L 3.839844 -5.195312 L 3.839844 -4.261719 L 2.289062 -4.261719 L 2.289062 -0.835938 L 2.722656 -0.835938 L 2.722656 -1.148438 Z M 4.292969 -1.570312 L 4.292969 -2.503906 L 5.429688 -2.503906 L 5.429688 -1.570312 Z M 5.429688 -2.921875 L 4.292969 -2.921875 L 4.292969 -3.839844 L 5.429688 -3.839844 Z M 3.839844 -3.839844 L 3.839844 -2.921875 L 2.722656 -2.921875 L 2.722656 -3.839844 Z M 1.699219 -5.253906 C 1.394531 -4.269531 0.90625 -3.394531 0.230469 -2.625 L 0.378906 -2.140625 C 0.621094 -2.394531 0.835938 -2.65625 1.042969 -2.933594 L 1.042969 0.652344 L 1.496094 0.652344 L 1.496094 -3.621094 C 1.75 -4.070312 1.960938 -4.550781 2.128906 -5.054688 Z "/>
</g>
<g id="glyph-0-9">
<path d="M 1.9375 -5.289062 L 1.515625 -5.085938 C 1.730469 -4.78125 1.9375 -4.429688 2.128906 -4.03125 L 2.542969 -4.238281 C 2.351562 -4.621094 2.148438 -4.972656 1.9375 -5.289062 Z M 4.070312 -3.570312 L 4.070312 -2.070312 L 2.371094 -2.070312 C 2.402344 -2.339844 2.421875 -2.632812 2.429688 -2.953125 L 2.429688 -3.570312 Z M 4.070312 -1.628906 L 4.070312 0.605469 L 4.542969 0.605469 L 4.542969 -1.628906 L 6.042969 -1.628906 L 6.042969 -2.070312 L 4.542969 -2.070312 L 4.542969 -3.570312 L 5.796875 -3.570312 L 5.796875 -4.011719 L 4.363281 -4.011719 C 4.582031 -4.332031 4.78125 -4.703125 4.957031 -5.113281 L 4.464844 -5.289062 C 4.289062 -4.835938 4.082031 -4.410156 3.839844 -4.011719 L 0.613281 -4.011719 L 0.613281 -3.570312 L 1.960938 -3.570312 L 1.960938 -2.953125 C 1.957031 -2.640625 1.9375 -2.34375 1.898438 -2.070312 L 0.351562 -2.070312 L 0.351562 -1.628906 L 1.828125 -1.628906 C 1.777344 -1.378906 1.707031 -1.15625 1.621094 -0.953125 C 1.394531 -0.453125 0.984375 -0.0585938 0.410156 0.238281 L 0.675781 0.65625 C 1.285156 0.359375 1.71875 -0.0625 1.988281 -0.605469 C 2.121094 -0.894531 2.230469 -1.234375 2.308594 -1.628906 Z "/>
</g>
<g id="glyph-0-10">
<path d="M 2.613281 -0.882812 C 2.34375 -0.320312 1.578125 0.03125 0.3125 0.183594 L 0.503906 0.601562 C 1.921875 0.394531 2.785156 -0.0976562 3.085938 -0.882812 L 5.085938 -0.882812 C 5.085938 -0.632812 5.0625 -0.394531 5.023438 -0.179688 C 4.984375 0.0273438 4.816406 0.132812 4.53125 0.148438 C 4.289062 0.148438 4.027344 0.132812 3.738281 0.109375 L 3.859375 0.542969 C 4.039062 0.554688 4.273438 0.5625 4.554688 0.5625 C 4.933594 0.5625 5.195312 0.453125 5.339844 0.238281 C 5.480469 0.0195312 5.558594 -0.484375 5.558594 -1.277344 L 0.621094 -1.277344 L 0.621094 -0.882812 Z M 1.304688 -2.90625 L 2.796875 -2.90625 L 2.796875 -2.582031 L 1.304688 -2.582031 Z M 2.796875 -3.214844 L 1.304688 -3.214844 L 1.304688 -3.546875 L 2.796875 -3.546875 Z M 1.304688 -2.269531 L 2.796875 -2.269531 L 2.796875 -2.109375 C 2.796875 -1.980469 2.710938 -1.910156 2.53125 -1.910156 L 2.070312 -1.921875 L 2.171875 -1.558594 L 2.652344 -1.558594 C 3.042969 -1.558594 3.238281 -1.710938 3.238281 -2.011719 L 3.238281 -3.890625 L 0.863281 -3.890625 L 0.863281 -1.550781 L 1.304688 -1.550781 Z M 2.253906 -5.265625 L 1.796875 -5.1875 C 1.902344 -5.035156 2.007812 -4.863281 2.097656 -4.675781 L 0.363281 -4.675781 L 0.363281 -4.269531 L 6.027344 -4.269531 L 6.027344 -4.675781 L 4.359375 -4.675781 C 4.492188 -4.84375 4.59375 -5.015625 4.671875 -5.203125 L 4.210938 -5.265625 C 4.148438 -5.066406 4.050781 -4.867188 3.917969 -4.675781 L 2.542969 -4.675781 C 2.445312 -4.894531 2.351562 -5.09375 2.253906 -5.265625 Z M 4.9375 -1.578125 C 5.324219 -1.578125 5.515625 -1.777344 5.515625 -2.160156 L 5.515625 -3.980469 L 5.066406 -3.980469 L 5.066406 -2.269531 C 5.066406 -2.0625 4.976562 -1.957031 4.796875 -1.957031 C 4.570312 -1.957031 4.332031 -1.96875 4.089844 -1.980469 L 4.179688 -1.578125 Z M 3.886719 -3.816406 L 3.886719 -2.238281 L 4.3125 -2.238281 L 4.3125 -3.816406 Z "/>
</g>
<g id="glyph-0-11">
<path d="M 3.832031 -4.359375 L 3.832031 -3.707031 C 3.816406 -1.847656 3.167969 -0.5 1.898438 0.34375 L 2.273438 0.683594 C 3.589844 -0.242188 4.261719 -1.707031 4.289062 -3.707031 L 4.289062 -4.359375 L 5.464844 -4.359375 C 5.449219 -2.429688 5.425781 -1.277344 5.386719 -0.894531 C 5.324219 -0.253906 5.085938 0.0703125 4.683594 0.0703125 C 4.480469 0.0703125 4.230469 0.0585938 3.949219 0.0429688 L 4.0625 0.464844 C 4.382812 0.480469 4.613281 0.492188 4.753906 0.492188 C 5.394531 0.492188 5.757812 0.0898438 5.832031 -0.714844 C 5.890625 -1.234375 5.921875 -2.59375 5.921875 -4.796875 L 2.585938 -4.796875 L 2.585938 -4.359375 Z M 2.875 -3.78125 L 1.539062 -3.515625 L 1.539062 -5.132812 L 1.066406 -5.132812 L 1.066406 -3.417969 L 0.222656 -3.253906 L 0.292969 -2.804688 L 1.066406 -2.957031 L 1.066406 -1.113281 C 1.066406 -0.957031 0.984375 -0.851562 0.816406 -0.785156 L 0.953125 -0.339844 C 1.679688 -0.585938 2.28125 -0.867188 2.765625 -1.175781 L 2.652344 -1.589844 C 2.28125 -1.375 1.910156 -1.1875 1.539062 -1.035156 L 1.539062 -3.054688 L 2.953125 -3.335938 Z "/>
</g>
<g id="glyph-0-12">
<path d="M 4.753906 -5.238281 L 4.460938 -4.957031 C 4.785156 -4.710938 5.042969 -4.472656 5.234375 -4.242188 L 4.039062 -4.242188 C 4.027344 -4.550781 4.019531 -4.875 4.019531 -5.234375 L 3.546875 -5.234375 C 3.546875 -4.886719 3.550781 -4.5625 3.566406 -4.242188 L 0.925781 -4.242188 L 0.925781 -2.113281 C 0.90625 -1.074219 0.695312 -0.261719 0.289062 0.324219 L 0.640625 0.640625 C 1.113281 -0.0507812 1.367188 -0.972656 1.394531 -2.113281 L 1.394531 -2.308594 L 2.5 -2.308594 C 2.484375 -1.605469 2.464844 -1.144531 2.429688 -0.925781 C 2.390625 -0.746094 2.300781 -0.652344 2.160156 -0.644531 C 1.988281 -0.644531 1.777344 -0.652344 1.527344 -0.664062 L 1.667969 -0.25 C 1.871094 -0.238281 2.058594 -0.222656 2.210938 -0.222656 C 2.53125 -0.238281 2.726562 -0.378906 2.8125 -0.652344 C 2.894531 -0.964844 2.945312 -1.660156 2.957031 -2.742188 L 1.394531 -2.742188 L 1.394531 -3.800781 L 3.585938 -3.800781 C 3.636719 -3.003906 3.726562 -2.332031 3.867188 -1.796875 C 3.9375 -1.519531 4.019531 -1.265625 4.109375 -1.027344 C 3.667969 -0.472656 3.125 -0.0507812 2.484375 0.238281 L 2.742188 0.621094 C 3.339844 0.351562 3.867188 -0.0390625 4.3125 -0.5625 C 4.410156 -0.363281 4.515625 -0.183594 4.632812 -0.03125 C 4.9375 0.351562 5.226562 0.542969 5.496094 0.542969 C 5.78125 0.542969 6 0.113281 6.152344 -0.734375 L 5.738281 -0.964844 C 5.640625 -0.308594 5.535156 0.0273438 5.417969 0.03125 C 5.289062 0.03125 5.117188 -0.121094 4.90625 -0.429688 C 4.804688 -0.574219 4.710938 -0.753906 4.621094 -0.957031 C 5.027344 -1.535156 5.359375 -2.25 5.617188 -3.09375 L 5.203125 -3.273438 C 5.003906 -2.585938 4.746094 -1.988281 4.429688 -1.476562 C 4.382812 -1.617188 4.339844 -1.761719 4.300781 -1.921875 C 4.183594 -2.382812 4.101562 -3.007812 4.058594 -3.800781 L 6.027344 -3.800781 L 6.027344 -4.242188 L 5.246094 -4.242188 L 5.539062 -4.535156 C 5.324219 -4.773438 5.0625 -5.007812 4.753906 -5.238281 Z "/>
</g>
<g id="glyph-0-13">
<path d="M 3.0625 -3.09375 L 3.0625 -0.0898438 C 3.0625 0.0703125 2.972656 0.152344 2.796875 0.152344 C 2.441406 0.152344 2.101562 0.140625 1.789062 0.113281 L 1.917969 0.5625 C 2.203125 0.574219 2.542969 0.585938 2.925781 0.585938 C 3.324219 0.585938 3.527344 0.390625 3.527344 -0.0078125 L 3.527344 -2.863281 C 4.273438 -3.347656 4.945312 -3.859375 5.539062 -4.394531 L 5.539062 -4.84375 L 0.710938 -4.84375 L 0.710938 -4.394531 L 4.914062 -4.394531 C 4.324219 -3.898438 3.710938 -3.464844 3.0625 -3.09375 Z "/>
</g>
<g id="glyph-0-14">
<path d="M 2.28125 -4.28125 L 2.28125 -3.839844 L 4.914062 -3.839844 C 4.761719 -3.257812 4.542969 -2.746094 4.25 -2.308594 C 3.816406 -2.675781 3.339844 -3.046875 2.835938 -3.417969 L 2.523438 -3.117188 C 3.046875 -2.722656 3.535156 -2.332031 3.980469 -1.949219 C 3.515625 -1.398438 2.902344 -0.996094 2.148438 -0.753906 L 2.410156 -0.339844 C 3.175781 -0.605469 3.816406 -1.046875 4.320312 -1.648438 C 4.796875 -1.214844 5.21875 -0.792969 5.578125 -0.371094 L 5.9375 -0.726562 C 5.535156 -1.15625 5.085938 -1.585938 4.585938 -2.011719 C 4.921875 -2.515625 5.183594 -3.125 5.367188 -3.839844 L 5.9375 -3.839844 L 5.9375 -4.28125 L 4.3125 -4.28125 C 4.222656 -4.640625 4.128906 -4.953125 4.027344 -5.226562 L 3.558594 -5.148438 C 3.660156 -4.894531 3.757812 -4.601562 3.847656 -4.28125 Z M 0.804688 -5.117188 L 0.492188 -4.816406 C 0.953125 -4.460938 1.308594 -4.128906 1.570312 -3.816406 L 1.902344 -4.140625 C 1.605469 -4.464844 1.238281 -4.792969 0.804688 -5.117188 Z M 4.53125 0.523438 L 5.992188 0.523438 L 6.101562 0.0625 C 5.9375 0.078125 5.691406 0.0820312 5.386719 0.0898438 C 5.074219 0.0976562 4.765625 0.101562 4.464844 0.101562 C 3.972656 0.101562 3.558594 0.0976562 3.226562 0.0898438 C 2.855469 0.078125 2.570312 0.0273438 2.375 -0.0625 C 2.199219 -0.148438 2.039062 -0.28125 1.886719 -0.464844 C 1.832031 -0.523438 1.78125 -0.574219 1.730469 -0.613281 L 1.730469 -3.003906 L 0.390625 -3.003906 L 0.390625 -2.582031 L 1.304688 -2.582031 L 1.304688 -0.640625 C 1.042969 -0.523438 0.742188 -0.199219 0.402344 0.339844 L 0.746094 0.652344 C 1.097656 0.0625 1.347656 -0.230469 1.5 -0.230469 C 1.578125 -0.230469 1.660156 -0.179688 1.746094 -0.0703125 C 1.941406 0.160156 2.167969 0.320312 2.414062 0.394531 C 2.671875 0.464844 2.996094 0.503906 3.40625 0.511719 C 3.808594 0.515625 4.183594 0.523438 4.53125 0.523438 Z "/>
</g>
<g id="glyph-0-15">
<path d="M 2.957031 -3.328125 L 2.957031 0.632812 L 3.429688 0.632812 L 3.429688 -3.328125 Z M 2.992188 -5.214844 C 2.34375 -4.253906 1.425781 -3.46875 0.230469 -2.863281 L 0.503906 -2.445312 C 1.589844 -2.996094 2.484375 -3.777344 3.195312 -4.785156 C 3.78125 -3.867188 4.683594 -3.097656 5.886719 -2.472656 L 6.160156 -2.886719 C 4.855469 -3.558594 3.9375 -4.332031 3.398438 -5.214844 Z "/>
</g>
<g id="glyph-0-16">
<path d="M 0.621094 -4.933594 L 0.621094 -4.484375 L 2.933594 -4.484375 L 2.933594 -2.070312 L 0.363281 -2.070312 L 0.363281 -1.628906 L 2.933594 -1.628906 L 2.933594 0.632812 L 3.40625 0.632812 L 3.40625 -1.628906 L 6.027344 -1.628906 L 6.027344 -2.070312 L 3.40625 -2.070312 L 3.40625 -4.484375 L 5.78125 -4.484375 L 5.78125 -4.933594 Z M 1.398438 -4.078125 L 0.972656 -3.867188 C 1.214844 -3.4375 1.445312 -2.953125 1.660156 -2.402344 L 2.089844 -2.613281 C 1.871094 -3.144531 1.640625 -3.628906 1.398438 -4.078125 Z M 5.023438 -4.109375 C 4.835938 -3.621094 4.585938 -3.136719 4.273438 -2.640625 L 4.683594 -2.429688 C 4.996094 -2.914062 5.253906 -3.40625 5.445312 -3.910156 Z "/>
</g>
<g id="glyph-0-17">
<path d="M 2.714844 -4.8125 L 2.714844 -4.359375 L 5.777344 -4.359375 L 5.777344 -4.8125 Z M 2.542969 -3.1875 L 2.542969 -2.734375 L 4.554688 -2.734375 L 4.554688 -0.0585938 C 4.554688 0.109375 4.445312 0.191406 4.242188 0.191406 C 3.960938 0.191406 3.675781 0.179688 3.367188 0.160156 L 3.464844 0.613281 L 4.402344 0.613281 C 4.8125 0.613281 5.023438 0.429688 5.023438 0.0585938 L 5.023438 -2.734375 L 6.058594 -2.734375 L 6.058594 -3.1875 Z M 1.707031 -5.164062 C 1.40625 -4.5625 0.925781 -4.027344 0.261719 -3.550781 L 0.394531 -3.09375 C 1.1875 -3.636719 1.761719 -4.261719 2.121094 -4.972656 Z M 2.007812 -3.707031 C 1.648438 -2.996094 1.078125 -2.371094 0.300781 -1.820312 L 0.433594 -1.359375 C 0.742188 -1.570312 1.015625 -1.796875 1.273438 -2.027344 L 1.273438 0.640625 L 1.726562 0.640625 L 1.726562 -2.492188 C 2.007812 -2.8125 2.238281 -3.15625 2.421875 -3.515625 Z "/>
</g>
<g id="glyph-0-18">
<path d="M 5.820312 -4.8125 L 0.570312 -4.8125 L 0.570312 0.542969 L 1.035156 0.542969 L 1.035156 0.171875 L 5.355469 0.171875 L 5.355469 0.542969 L 5.820312 0.542969 Z M 1.035156 -0.242188 L 1.035156 -4.394531 L 2.253906 -4.394531 L 2.253906 -3.007812 C 2.242188 -2.253906 1.910156 -1.710938 1.257812 -1.367188 L 1.609375 -1.0625 C 2.324219 -1.46875 2.691406 -2.121094 2.703125 -3.007812 L 2.703125 -4.394531 L 3.65625 -4.394531 L 3.65625 -1.859375 C 3.65625 -1.515625 3.839844 -1.335938 4.222656 -1.335938 L 5.132812 -1.335938 L 5.132812 -1.757812 L 4.34375 -1.757812 C 4.179688 -1.757812 4.097656 -1.828125 4.097656 -1.957031 L 4.097656 -4.394531 L 5.355469 -4.394531 L 5.355469 -0.242188 Z "/>
</g>
<g id="glyph-0-19">
<path d="M 3.480469 -5.214844 L 3.480469 -4.199219 L 2.269531 -4.199219 L 2.269531 -3.757812 L 3.476562 -3.757812 C 3.425781 -2.402344 2.976562 -1.40625 2.128906 -0.78125 L 2.480469 -0.464844 C 3.394531 -1.167969 3.878906 -2.269531 3.941406 -3.757812 L 5.335938 -3.757812 C 5.316406 -2.484375 5.257812 -1.699219 5.167969 -1.40625 C 5.066406 -1.097656 4.824219 -0.945312 4.441406 -0.9375 C 4.320312 -0.9375 4.167969 -0.953125 3.980469 -0.964844 L 4.101562 -0.53125 C 4.273438 -0.515625 4.421875 -0.511719 4.550781 -0.511719 C 5.003906 -0.511719 5.324219 -0.691406 5.507812 -1.035156 C 5.6875 -1.378906 5.78125 -2.433594 5.796875 -4.199219 L 3.949219 -4.199219 L 3.949219 -5.214844 Z M 0.785156 -5.117188 L 0.464844 -4.816406 C 0.925781 -4.453125 1.285156 -4.113281 1.546875 -3.796875 L 1.878906 -4.132812 C 1.585938 -4.460938 1.21875 -4.785156 0.785156 -5.117188 Z M 4.671875 0.523438 L 6.019531 0.523438 L 6.132812 0.0585938 C 5.980469 0.0703125 5.757812 0.078125 5.46875 0.0820312 C 5.175781 0.0820312 4.894531 0.0898438 4.613281 0.0898438 C 4.089844 0.0898438 3.648438 0.0820312 3.296875 0.078125 C 2.902344 0.0625 2.59375 0.0195312 2.390625 -0.0625 C 2.203125 -0.152344 2.03125 -0.289062 1.867188 -0.464844 C 1.808594 -0.53125 1.75 -0.574219 1.699219 -0.613281 L 1.699219 -3.015625 L 0.339844 -3.015625 L 0.339844 -2.570312 L 1.257812 -2.570312 L 1.257812 -0.640625 C 0.992188 -0.523438 0.691406 -0.191406 0.34375 0.351562 L 0.691406 0.664062 C 1.046875 0.0625 1.308594 -0.230469 1.464844 -0.230469 C 1.546875 -0.230469 1.636719 -0.179688 1.726562 -0.0703125 C 1.929688 0.160156 2.167969 0.320312 2.433594 0.394531 C 2.695312 0.464844 3.046875 0.503906 3.480469 0.511719 C 3.910156 0.515625 4.304688 0.523438 4.671875 0.523438 Z "/>
</g>
<g id="glyph-0-20">
<path d="M 1.597656 -0.90625 C 1.367188 -0.90625 1.167969 -0.832031 1.007812 -0.675781 C 0.84375 -0.523438 0.765625 -0.332031 0.765625 -0.101562 C 0.765625 0.128906 0.84375 0.320312 1.007812 0.472656 C 1.167969 0.621094 1.367188 0.695312 1.597656 0.695312 C 1.828125 0.695312 2.019531 0.621094 2.183594 0.464844 C 2.34375 0.3125 2.429688 0.121094 2.429688 -0.101562 C 2.429688 -0.332031 2.34375 -0.523438 2.183594 -0.675781 C 2.019531 -0.832031 1.828125 -0.90625 1.597656 -0.90625 Z M 1.597656 -0.574219 C 1.726562 -0.574219 1.839844 -0.53125 1.9375 -0.433594 C 2.03125 -0.34375 2.082031 -0.238281 2.082031 -0.101562 C 2.082031 0.0273438 2.03125 0.132812 1.9375 0.222656 C 1.839844 0.3125 1.726562 0.363281 1.597656 0.363281 C 1.464844 0.363281 1.347656 0.3125 1.257812 0.222656 C 1.15625 0.132812 1.113281 0.0273438 1.113281 -0.101562 C 1.113281 -0.238281 1.15625 -0.34375 1.257812 -0.433594 C 1.347656 -0.53125 1.464844 -0.574219 1.597656 -0.574219 Z "/>
</g>
<g id="glyph-1-0">
<path d="M 2.851562 -1.640625 L 2.113281 -3.402344 L 1.382812 -1.640625 Z M 0.09375 0 L 0.09375 -0.117188 C 0.257812 -0.132812 0.382812 -0.195312 0.464844 -0.300781 C 0.546875 -0.40625 0.6875 -0.695312 0.886719 -1.167969 L 2.21875 -4.300781 L 2.34375 -4.300781 L 3.933594 -0.679688 C 4.039062 -0.4375 4.125 -0.289062 4.1875 -0.234375 C 4.25 -0.175781 4.359375 -0.136719 4.507812 -0.117188 L 4.507812 0 L 2.882812 0 L 2.882812 -0.117188 C 3.070312 -0.132812 3.191406 -0.152344 3.246094 -0.175781 C 3.300781 -0.199219 3.324219 -0.257812 3.324219 -0.351562 C 3.324219 -0.382812 3.316406 -0.4375 3.292969 -0.519531 C 3.273438 -0.597656 3.246094 -0.679688 3.207031 -0.765625 L 2.941406 -1.382812 L 1.269531 -1.382812 C 1.101562 -0.964844 1.003906 -0.707031 0.972656 -0.617188 C 0.941406 -0.523438 0.921875 -0.449219 0.921875 -0.394531 C 0.921875 -0.289062 0.96875 -0.214844 1.054688 -0.171875 C 1.109375 -0.148438 1.210938 -0.128906 1.359375 -0.117188 L 1.359375 0 Z "/>
</g>
<g id="glyph-1-1">
<rect x="0" y="0" width="0" height="0" mask="url(#mask-1)"/>
</g>
</g>
<image id="source-86" x="0" y="0" width="0" height="0"/>
<mask id="mask-0">
<use xlink:href="#source-86"/>
</mask>
<image id="source-65" x="0" y="0" width="0" height="0"/>
<mask id="mask-1">
<use xlink:href="#source-65"/>
</mask>
</defs>
<g fill="rgb(100%, 100%, 100%)" fill-opacity="1">
<use xlink:href="#glyph-0-0" x="30" y="26.773438"/>
<use xlink:href="#glyph-0-1" x="36" y="26.773438"/>
<use xlink:href="#glyph-0-2" x="42" y="26.773438"/>
</g>
<g fill="rgb(100%, 100%, 100%)" fill-opacity="1">
<use xlink:href="#glyph-1-0" x="44" y="26.46582"/>
<use xlink:href="#glyph-1-1" x="48" y="26.46582"/>
</g>
<g fill="rgb(100%, 100%, 100%)" fill-opacity="1">
<use xlink:href="#glyph-0-3" x="49" y="26.773438"/>
<use xlink:href="#glyph-0-4" x="55" y="26.773438"/>
<use xlink:href="#glyph-0-5" x="61" y="26.773438"/>
<use xlink:href="#glyph-0-6" x="67" y="26.773438"/>
<use xlink:href="#glyph-0-7" x="73" y="26.773438"/>
<use xlink:href="#glyph-0-8" x="79" y="26.773438"/>
<use xlink:href="#glyph-0-9" x="85" y="26.773438"/>
<use xlink:href="#glyph-0-10" x="91" y="26.773438"/>
<use xlink:href="#glyph-0-11" x="97" y="26.773438"/>
<use xlink:href="#glyph-0-12" x="103" y="26.773438"/>
<use xlink:href="#glyph-0-13" x="109" y="26.773438"/>
<use xlink:href="#glyph-0-14" x="115" y="26.773438"/>
<use xlink:href="#glyph-0-15" x="121" y="26.773438"/>
<use xlink:href="#glyph-0-16" x="127" y="26.773438"/>
<use xlink:href="#glyph-0-17" x="133" y="26.773438"/>
<use xlink:href="#glyph-0-18" x="139" y="26.773438"/>
<use xlink:href="#glyph-0-19" x="145" y="26.773438"/>
<use xlink:href="#glyph-0-6" x="151" y="26.773438"/>
<use xlink:href="#glyph-0-20" x="157" y="26.773438"/>
</g>
</svg>
