<?xml version="1.0" encoding="UTF-8"?>
<svg xmlns="http://www.w3.org/2000/svg" xmlns:xlink="http://www.w3.org/1999/xlink" width="1280" height="720" viewBox="0 0 1280 720">
<defs>
<g>
<g id="glyph-0-0">
<path d="M 1.734375 -4.414062 L 6.101562 -4.414062 L 6.101562 -4.875 L 1.992188 -4.875 C 2.074219 -5.035156 2.152344 -5.207031 2.234375 -5.378906 L 1.746094 -5.492188 C 1.378906 -4.652344 0.914062 -3.980469 0.339844 -3.460938 L 0.648438 -3.085938 C 1.058594 -3.460938 1.421875 -3.90625 1.734375 -4.414062 Z M 2.808594 -1.738281 L 2.585938 -1.425781 C 3.039062 -1.265625 3.488281 -1.046875 3.925781 -0.765625 L 4.152344 -1.113281 C 3.746094 -1.359375 3.300781 -1.566406 2.808594 -1.738281 Z M 1.105469 -0.285156 L 5 -0.285156 C 4.988281 -0.191406 4.980469 -0.125 4.96875 -0.101562 C 4.90625 0.046875 4.8125 0.148438 4.695312 0.191406 C 4.574219 0.226562 4.433594 0.246094 4.273438 0.246094 C 4.019531 0.246094 3.734375 0.234375 3.414062 0.21875 L 3.558594 0.667969 C 3.855469 0.667969 4.121094 0.660156 4.347656 0.660156 C 4.667969 0.660156 4.914062 0.613281 5.074219 0.519531 C 5.246094 0.414062 5.359375 0.261719 5.421875 0.0546875 C 5.433594 0 5.453125 -0.113281 5.46875 -0.285156 L 6.234375 -0.285156 L 6.234375 -0.734375 L 5.5 -0.734375 C 5.511719 -1.027344 5.535156 -1.40625 5.554688 -1.875 L 6.414062 -1.875 L 6.414062 -2.328125 L 5.574219 -2.328125 L 5.621094 -3.859375 L 1.480469 -3.859375 C 1.464844 -3.347656 1.441406 -2.832031 1.394531 -2.328125 L 0.265625 -2.328125 L 0.265625 -1.875 L 1.347656 -1.875 C 1.285156 -1.339844 1.207031 -0.808594 1.105469 -0.285156 Z M 5.039062 -0.734375 L 1.660156 -0.734375 C 1.726562 -1.078125 1.78125 -1.460938 1.828125 -1.875 L 5.09375 -1.875 C 5.074219 -1.40625 5.054688 -1.027344 5.039062 -0.734375 Z M 1.875 -2.328125 C 1.898438 -2.667969 1.921875 -3.027344 1.933594 -3.414062 L 5.140625 -3.414062 C 5.125 -3.019531 5.121094 -2.660156 5.105469 -2.328125 L 3.972656 -2.328125 L 4.195312 -2.660156 C 3.792969 -2.90625 3.347656 -3.113281 2.859375 -3.285156 L 2.640625 -2.96875 C 3.082031 -2.808594 3.519531 -2.59375 3.945312 -2.328125 Z "/>
</g>
<g id="glyph-0-1">
<path d="M 1.199219 -5.066406 L 1.199219 -2.039062 L 5.46875 -2.039062 L 5.46875 -5.066406 Z M 4.992188 -2.5 L 1.671875 -2.5 L 1.671875 -4.601562 L 4.992188 -4.601562 Z M 4.546875 -1.6875 L 4.160156 -1.441406 C 4.875 -0.660156 5.433594 0.0546875 5.832031 0.699219 L 6.246094 0.40625 C 5.855469 -0.1875 5.285156 -0.886719 4.546875 -1.6875 Z M 2.113281 -1.679688 C 1.652344 -0.875 1.101562 -0.179688 0.453125 0.398438 L 0.878906 0.699219 C 1.519531 0.0859375 2.074219 -0.632812 2.539062 -1.472656 Z "/>
</g>
<g id="glyph-0-2">
<path d="M 1.074219 -3.398438 L 1.074219 -1.699219 L 2.820312 -1.699219 C 2.726562 -1.445312 2.605469 -1.234375 2.464844 -1.046875 C 2.054688 -0.539062 1.367188 -0.101562 0.394531 0.273438 L 0.699219 0.667969 C 1.734375 0.238281 2.464844 -0.265625 2.90625 -0.851562 C 3.074219 -1.078125 3.214844 -1.359375 3.328125 -1.699219 L 3.472656 -1.699219 L 3.472656 -0.0585938 C 3.472656 0.359375 3.695312 0.574219 4.140625 0.574219 L 5.433594 0.574219 C 5.714844 0.574219 5.914062 0.511719 6.046875 0.398438 C 6.1875 0.265625 6.285156 -0.101562 6.339844 -0.714844 L 5.878906 -0.859375 C 5.847656 -0.378906 5.785156 -0.0859375 5.699219 0.0195312 C 5.632812 0.101562 5.511719 0.140625 5.347656 0.140625 L 4.273438 0.140625 C 4.054688 0.140625 3.945312 0.0390625 3.945312 -0.160156 L 3.945312 -1.699219 L 5.632812 -1.699219 L 5.632812 -3.648438 L 3.914062 -3.648438 C 4.207031 -3.875 4.507812 -4.140625 4.808594 -4.453125 L 4.808594 -4.8125 L 2.507812 -4.8125 C 2.632812 -4.980469 2.753906 -5.160156 2.875 -5.347656 L 2.386719 -5.445312 C 1.839844 -4.632812 1.132812 -3.972656 0.273438 -3.46875 L 0.59375 -3.074219 C 0.753906 -3.179688 0.914062 -3.285156 1.074219 -3.398438 Z M 3.21875 -3.648438 L 1.386719 -3.648438 C 1.660156 -3.875 1.914062 -4.121094 2.152344 -4.386719 L 4.160156 -4.386719 C 3.847656 -4.105469 3.535156 -3.859375 3.21875 -3.648438 Z M 5.171875 -2.148438 L 3.453125 -2.148438 C 3.527344 -2.460938 3.582031 -2.8125 3.613281 -3.207031 L 5.171875 -3.207031 Z M 2.960938 -2.148438 L 1.535156 -2.148438 L 1.535156 -3.207031 L 3.132812 -3.207031 C 3.09375 -2.820312 3.039062 -2.464844 2.960938 -2.148438 Z M 4.667969 -1.375 L 4.300781 -1.148438 C 4.652344 -0.792969 4.933594 -0.464844 5.132812 -0.171875 L 5.511719 -0.445312 C 5.3125 -0.714844 5.035156 -1.019531 4.667969 -1.375 Z "/>
</g>
<g id="glyph-0-3">
<path d="M 0.421875 -2.582031 L 0.421875 -2.113281 L 3.226562 -2.113281 L 3.226562 -0.132812 C 3.226562 0.0664062 3.121094 0.171875 2.90625 0.171875 C 2.519531 0.171875 2.167969 0.167969 1.832031 0.152344 L 1.960938 0.621094 L 3.101562 0.621094 C 3.507812 0.621094 3.714844 0.421875 3.714844 0.0195312 L 3.714844 -2.113281 L 6.246094 -2.113281 L 6.246094 -2.582031 L 3.714844 -2.582031 L 3.714844 -3.28125 C 4.394531 -3.726562 4.992188 -4.199219 5.519531 -4.699219 L 5.519531 -5.152344 L 1.121094 -5.152344 L 1.121094 -4.699219 L 4.867188 -4.699219 C 4.347656 -4.246094 3.800781 -3.855469 3.226562 -3.527344 L 3.226562 -2.582031 Z "/>
</g>
<g id="glyph-0-4">
<path d="M 3.308594 -5.46875 C 2.71875 -4.828125 1.832031 -4.398438 0.648438 -4.171875 L 0.925781 -3.734375 C 1.640625 -3.894531 2.253906 -4.125 2.773438 -4.433594 L 4.71875 -4.433594 C 4.347656 -3.886719 3.808594 -3.46875 3.113281 -3.1875 C 2.898438 -3.453125 2.671875 -3.695312 2.433594 -3.921875 L 2.011719 -3.71875 C 2.238281 -3.511719 2.460938 -3.28125 2.667969 -3.027344 C 2.1875 -2.886719 1.652344 -2.800781 1.054688 -2.761719 L 1.261719 -2.328125 C 3.207031 -2.480469 4.546875 -3.199219 5.265625 -4.480469 L 5.265625 -4.859375 L 3.351562 -4.859375 C 3.488281 -4.980469 3.613281 -5.105469 3.734375 -5.242188 Z M 3.054688 -1.300781 L 2.625 -1.101562 C 2.875 -0.859375 3.105469 -0.585938 3.332031 -0.285156 C 2.582031 -0.0351562 1.679688 0.09375 0.640625 0.101562 L 0.832031 0.558594 C 3.421875 0.5 5.179688 -0.3125 6.128906 -1.886719 L 6.128906 -2.265625 L 4.300781 -2.265625 C 4.488281 -2.40625 4.652344 -2.558594 4.8125 -2.71875 L 4.398438 -2.945312 C 3.707031 -2.214844 2.632812 -1.765625 1.179688 -1.621094 L 1.464844 -1.195312 C 2.273438 -1.332031 2.96875 -1.546875 3.554688 -1.828125 L 5.527344 -1.828125 C 5.101562 -1.238281 4.519531 -0.78125 3.78125 -0.460938 C 3.554688 -0.761719 3.308594 -1.039062 3.054688 -1.300781 Z "/>
</g>
<g id="glyph-0-5">
<path d="M 0.832031 -1.898438 L 0.832031 -1.441406 L 3.105469 -1.441406 L 3.105469 -0.078125 C 3.105469 0.121094 3.007812 0.21875 2.8125 0.21875 C 2.601562 0.21875 2.367188 0.207031 2.125 0.1875 L 2.234375 0.648438 L 2.980469 0.648438 C 3.394531 0.648438 3.601562 0.441406 3.601562 0.0390625 L 3.601562 -1.441406 L 5.8125 -1.441406 L 5.8125 -1.898438 L 3.601562 -1.898438 L 3.601562 -2.554688 L 3.105469 -2.554688 L 3.105469 -1.898438 Z M 1.933594 -1.027344 C 1.535156 -0.59375 1.035156 -0.21875 0.441406 0.101562 L 0.746094 0.507812 C 1.347656 0.152344 1.851562 -0.261719 2.265625 -0.734375 Z M 5.765625 0.492188 L 6.113281 0.140625 C 5.535156 -0.394531 5.027344 -0.792969 4.601562 -1.058594 L 4.285156 -0.765625 C 4.785156 -0.40625 5.28125 0.0117188 5.765625 0.492188 Z M 2.441406 -5.519531 C 1.980469 -4.8125 1.398438 -4.234375 0.695312 -3.792969 L 1 -3.425781 C 1.308594 -3.625 1.601562 -3.859375 1.875 -4.121094 C 2.160156 -3.832031 2.492188 -3.574219 2.878906 -3.339844 C 2.148438 -3.007812 1.285156 -2.773438 0.300781 -2.632812 L 0.507812 -2.199219 C 1.601562 -2.378906 2.539062 -2.671875 3.339844 -3.085938 C 4.113281 -2.707031 5.046875 -2.433594 6.152344 -2.273438 L 6.375 -2.71875 C 5.386719 -2.847656 4.535156 -3.058594 3.8125 -3.359375 C 4.355469 -3.699219 4.8125 -4.101562 5.195312 -4.566406 L 5.195312 -4.941406 L 2.59375 -4.941406 C 2.699219 -5.085938 2.800781 -5.246094 2.90625 -5.414062 Z M 2.167969 -4.414062 L 2.253906 -4.511719 L 4.59375 -4.511719 C 4.238281 -4.160156 3.828125 -3.847656 3.347656 -3.574219 C 2.878906 -3.8125 2.488281 -4.09375 2.167969 -4.414062 Z "/>
</g>
<g id="glyph-0-6">
<path d="M 4.425781 -3.78125 L 5.648438 -3.78125 L 5.648438 -3.152344 L 4.425781 -3.152344 Z M 5.648438 -4.160156 L 4.425781 -4.160156 L 4.425781 -4.78125 L 5.648438 -4.78125 Z M 5.039062 -2.492188 L 4.726562 -2.292969 C 5.265625 -1.578125 5.695312 -0.933594 6.007812 -0.351562 L 6.359375 -0.601562 C 6.171875 -0.925781 5.941406 -1.285156 5.648438 -1.6875 C 5.875 -1.820312 6.085938 -2.011719 6.273438 -2.261719 L 6 -2.527344 C 5.820312 -2.292969 5.625 -2.113281 5.425781 -1.988281 C 5.308594 -2.148438 5.171875 -2.320312 5.039062 -2.492188 Z M 2.765625 -5.265625 L 2.453125 -4.972656 C 2.851562 -4.625 3.171875 -4.308594 3.398438 -4 L 3.71875 -4.320312 C 3.460938 -4.640625 3.140625 -4.953125 2.765625 -5.265625 Z M 5.273438 0.113281 C 5.039062 0.113281 4.8125 0.105469 4.585938 0.101562 C 4.347656 0.078125 4.140625 0.0351562 3.96875 -0.0390625 C 3.773438 -0.148438 3.613281 -0.285156 3.492188 -0.464844 C 3.480469 -0.480469 3.46875 -0.5 3.453125 -0.511719 L 3.453125 -3.214844 L 2.378906 -3.214844 L 2.378906 -2.773438 L 3.007812 -2.773438 L 3.007812 -0.574219 C 2.792969 -0.460938 2.539062 -0.171875 2.234375 0.292969 L 2.519531 0.652344 C 2.851562 0.101562 3.085938 -0.171875 3.207031 -0.171875 C 3.265625 -0.171875 3.339844 -0.125 3.421875 -0.0273438 C 3.558594 0.171875 3.734375 0.320312 3.941406 0.40625 C 4.152344 0.488281 4.398438 0.535156 4.679688 0.539062 C 4.867188 0.546875 5.046875 0.554688 5.234375 0.554688 L 6.273438 0.554688 L 6.398438 0.101562 C 6.046875 0.105469 5.671875 0.113281 5.273438 0.113281 Z M 1.046875 -3.253906 L 1.753906 -3.253906 L 1.753906 -2.085938 L 1.046875 -2.085938 Z M 1.753906 -3.679688 L 1.046875 -3.679688 L 1.046875 -4.859375 L 1.753906 -4.859375 Z M 1.039062 -1.660156 L 1.753906 -1.660156 L 1.753906 -0.046875 C 1.753906 0.121094 1.679688 0.207031 1.539062 0.207031 C 1.421875 0.207031 1.292969 0.199219 1.160156 0.191406 L 1.265625 0.605469 L 1.671875 0.605469 C 2.007812 0.605469 2.179688 0.433594 2.179688 0.101562 L 2.179688 -5.265625 L 0.621094 -5.265625 L 0.621094 -2.035156 C 0.613281 -1.074219 0.492188 -0.285156 0.265625 0.339844 L 0.613281 0.652344 C 0.859375 0.046875 1 -0.726562 1.039062 -1.660156 Z M 4.425781 -2.746094 L 6.074219 -2.746094 L 6.074219 -5.179688 L 4 -5.179688 L 4 -0.859375 C 4 -0.78125 3.953125 -0.726562 3.875 -0.695312 L 3.972656 -0.292969 C 4.519531 -0.425781 4.980469 -0.558594 5.339844 -0.707031 L 5.242188 -1.085938 C 4.972656 -0.980469 4.699219 -0.894531 4.425781 -0.828125 Z "/>
</g>
<g id="glyph-0-7">
<path d="M 1.238281 -0.792969 C 1.105469 -0.792969 1.007812 -0.761719 0.925781 -0.679688 C 0.847656 -0.605469 0.808594 -0.507812 0.808594 -0.378906 C 0.808594 -0.265625 0.847656 -0.167969 0.925781 -0.0859375 C 1.007812 -0.0078125 1.101562 0.0351562 1.214844 0.0351562 C 1.28125 0.0351562 1.332031 0.0195312 1.359375 0.0078125 C 1.359375 0.167969 1.308594 0.3125 1.214844 0.453125 C 1.105469 0.585938 0.964844 0.6875 0.792969 0.746094 L 0.792969 1.074219 C 1.074219 1 1.308594 0.851562 1.480469 0.640625 C 1.652344 0.414062 1.738281 0.152344 1.738281 -0.140625 C 1.738281 -0.332031 1.695312 -0.488281 1.605469 -0.605469 C 1.511719 -0.734375 1.386719 -0.792969 1.238281 -0.792969 Z "/>
</g>
<g id="glyph-0-8">
<path d="M 2.40625 -5.308594 C 2.140625 -4.800781 1.847656 -4.367188 1.527344 -3.992188 C 1.160156 -3.574219 0.746094 -3.234375 0.292969 -2.972656 L 0.554688 -2.554688 C 1.105469 -2.925781 1.554688 -3.308594 1.886719 -3.695312 C 2.199219 -4.046875 2.511719 -4.5 2.828125 -5.054688 Z M 2.625 -2.332031 C 2.488281 -1.707031 2.28125 -1.199219 2 -0.8125 C 1.6875 -0.414062 1.21875 -0.046875 0.605469 0.285156 L 0.914062 0.6875 C 1.59375 0.308594 2.105469 -0.121094 2.445312 -0.601562 C 2.734375 -1.027344 2.953125 -1.605469 3.113281 -2.332031 L 4.773438 -2.332031 C 4.738281 -1.292969 4.667969 -0.621094 4.546875 -0.300781 C 4.433594 0.0078125 4.199219 0.160156 3.839844 0.160156 C 3.492188 0.160156 3.125 0.152344 2.738281 0.140625 L 2.875 0.613281 L 4.085938 0.613281 C 4.421875 0.59375 4.660156 0.488281 4.808594 0.292969 C 4.960938 0.09375 5.066406 -0.265625 5.132812 -0.773438 C 5.199219 -1.285156 5.242188 -1.960938 5.261719 -2.792969 L 1.28125 -2.792969 L 1.28125 -2.332031 Z M 4.285156 -5.394531 L 3.875 -5.160156 C 4.28125 -4.105469 5 -3.246094 6.035156 -2.582031 L 6.355469 -2.960938 C 5.359375 -3.554688 4.671875 -4.367188 4.285156 -5.394531 Z "/>
</g>
<g id="glyph-0-9">
<path d="M 2.707031 -0.667969 C 2.039062 -0.414062 1.265625 -0.21875 0.375 -0.0742188 L 0.433594 0.394531 C 1.285156 0.238281 2.039062 0.0390625 2.707031 -0.214844 Z M 1.472656 -5.453125 C 1.207031 -4.660156 0.886719 -3.953125 0.527344 -3.339844 C 0.464844 -3.253906 0.398438 -3.195312 0.328125 -3.167969 L 0.441406 -2.726562 C 0.8125 -2.78125 1.179688 -2.847656 1.546875 -2.914062 C 1.199219 -2.285156 0.90625 -1.839844 0.667969 -1.574219 C 0.613281 -1.519531 0.539062 -1.472656 0.453125 -1.441406 L 0.578125 -1 C 1.21875 -1.09375 1.886719 -1.253906 2.582031 -1.492188 L 2.582031 -1.925781 C 2.101562 -1.753906 1.621094 -1.621094 1.140625 -1.519531 C 1.527344 -2 2 -2.808594 2.574219 -3.933594 L 2.148438 -4.101562 C 2.019531 -3.839844 1.898438 -3.59375 1.78125 -3.351562 C 1.488281 -3.292969 1.195312 -3.246094 0.898438 -3.207031 C 1.246094 -3.726562 1.59375 -4.414062 1.925781 -5.28125 Z M 5.839844 -2.074219 L 3.09375 -2.074219 L 3.09375 0.585938 L 3.554688 0.585938 L 3.554688 0.21875 L 5.367188 0.21875 L 5.367188 0.585938 L 5.839844 0.585938 Z M 3.554688 -0.238281 L 3.554688 -1.621094 L 5.367188 -1.621094 L 5.367188 -0.238281 Z M 4.238281 -5.40625 C 3.78125 -4.566406 3.195312 -3.875 2.472656 -3.332031 L 2.753906 -2.941406 C 3.414062 -3.445312 3.988281 -4.121094 4.46875 -4.960938 C 4.894531 -4.132812 5.460938 -3.472656 6.167969 -2.96875 L 6.445312 -3.375 C 5.671875 -3.90625 5.085938 -4.585938 4.695312 -5.40625 Z M 3.375 -3.351562 L 3.375 -2.90625 L 5.519531 -2.90625 L 5.519531 -3.351562 Z "/>
</g>
<g id="glyph-0-10">
<path d="M 1.667969 -0.945312 C 1.425781 -0.945312 1.21875 -0.867188 1.054688 -0.707031 C 0.878906 -0.546875 0.800781 -0.347656 0.800781 -0.105469 C 0.800781 0.132812 0.878906 0.332031 1.054688 0.492188 C 1.21875 0.648438 1.425781 0.726562 1.667969 0.726562 C 1.90625 0.726562 2.105469 0.648438 2.28125 0.488281 C 2.445312 0.328125 2.535156 0.125 2.535156 -0.105469 C 2.535156 -0.347656 2.445312 -0.546875 2.28125 -0.707031 C 2.105469 -0.867188 1.90625 -0.945312 1.667969 -0.945312 Z M 1.667969 -0.601562 C 1.800781 -0.601562 1.921875 -0.554688 2.019531 -0.453125 C 2.121094 -0.359375 2.171875 -0.246094 2.171875 -0.105469 C 2.171875 0.0273438 2.121094 0.140625 2.019531 0.234375 C 1.921875 0.328125 1.800781 0.378906 1.667969 0.378906 C 1.527344 0.378906 1.40625 0.328125 1.3125 0.234375 C 1.207031 0.140625 1.160156 0.0273438 1.160156 -0.105469 C 1.160156 -0.246094 1.207031 -0.359375 1.3125 -0.453125 C 1.40625 -0.554688 1.527344 -0.601562 1.667969 -0.601562 Z "/>
</g>
<g id="glyph-0-11">
<path d="M 1.285156 -3.5 L 1.285156 -3.113281 L 0.445312 -3.113281 L 0.445312 -2.726562 L 1.285156 -2.726562 L 1.285156 -2.28125 C 1.019531 -2.132812 0.726562 -2 0.398438 -1.878906 L 0.519531 -1.464844 C 0.792969 -1.601562 1.046875 -1.746094 1.285156 -1.898438 L 1.285156 -1.59375 L 1.707031 -1.59375 L 1.707031 -3.5 Z M 3.386719 -2.632812 C 3.707031 -2.699219 4 -2.792969 4.253906 -2.914062 L 4.113281 -3.300781 C 3.894531 -3.171875 3.652344 -3.074219 3.386719 -3 L 3.386719 -3.5 L 2.972656 -3.5 L 2.972656 -1.953125 C 2.972656 -1.832031 3.011719 -1.734375 3.09375 -1.652344 C 3.167969 -1.574219 3.28125 -1.535156 3.433594 -1.535156 L 3.753906 -1.535156 C 3.925781 -1.539062 4.054688 -1.578125 4.125 -1.648438 C 4.207031 -1.71875 4.261719 -1.953125 4.292969 -2.347656 L 3.953125 -2.453125 C 3.941406 -2.152344 3.898438 -1.988281 3.839844 -1.945312 C 3.800781 -1.921875 3.738281 -1.90625 3.671875 -1.90625 L 3.558594 -1.90625 C 3.441406 -1.90625 3.386719 -1.953125 3.386719 -2.046875 Z M 3.773438 -5.441406 C 2.941406 -5.199219 1.894531 -5.082031 0.632812 -5.082031 L 0.761719 -4.6875 C 1.246094 -4.6875 1.707031 -4.707031 2.132812 -4.738281 L 2.132812 -4.226562 L 0.507812 -4.226562 L 0.507812 -3.800781 L 2.132812 -3.800781 L 2.132812 -1.875 C 1.695312 -1.207031 1.09375 -0.640625 0.320312 -0.167969 L 0.601562 0.253906 C 1.1875 -0.148438 1.699219 -0.640625 2.132812 -1.226562 L 2.132812 0.679688 L 2.585938 0.679688 L 2.585938 -1.085938 C 2.921875 -0.832031 3.328125 -0.464844 3.808594 0.0078125 L 4.085938 -0.421875 C 3.582031 -0.847656 3.082031 -1.226562 2.585938 -1.554688 L 2.585938 -3.800781 L 4.085938 -3.800781 L 4.085938 -4.226562 L 2.585938 -4.226562 L 2.585938 -4.78125 C 3.113281 -4.847656 3.582031 -4.941406 3.992188 -5.058594 Z M 4.613281 -4.667969 L 4.613281 -0.601562 L 5.046875 -0.601562 L 5.046875 -4.667969 Z M 5.546875 0.625 C 5.945312 0.625 6.148438 0.433594 6.148438 0.0546875 L 6.148438 -5.367188 L 5.679688 -5.367188 L 5.679688 -0.0585938 C 5.679688 0.113281 5.582031 0.207031 5.386719 0.207031 C 5.199219 0.207031 5.007812 0.191406 4.808594 0.171875 L 4.90625 0.625 Z "/>
</g>
<g id="glyph-0-12">
<path d="M 0.367188 -5.09375 L 0.367188 -4.621094 L 2.914062 -4.621094 L 2.914062 0.679688 L 3.398438 0.679688 L 3.398438 -3.105469 C 4 -2.785156 4.746094 -2.332031 5.632812 -1.746094 L 5.921875 -2.171875 C 5.066406 -2.71875 4.226562 -3.199219 3.398438 -3.613281 L 3.398438 -4.621094 L 6.292969 -4.621094 L 6.292969 -5.09375 Z "/>
</g>
<g id="glyph-0-13">
<path d="M 1.332031 -5.21875 L 1.332031 -2.90625 L 5.386719 -2.90625 L 5.386719 -5.21875 Z M 4.914062 -3.3125 L 1.808594 -3.3125 L 1.808594 -3.859375 L 4.914062 -3.859375 Z M 1.808594 -4.253906 L 1.808594 -4.808594 L 4.914062 -4.808594 L 4.914062 -4.253906 Z M 3.167969 -1.972656 L 3.167969 0.0195312 C 3.027344 -0.0078125 2.90625 -0.0390625 2.800781 -0.0742188 C 2.453125 -0.199219 2.132812 -0.492188 1.851562 -0.960938 C 1.941406 -1.179688 2.011719 -1.414062 2.082031 -1.660156 L 1.625 -1.738281 C 1.40625 -0.90625 0.988281 -0.238281 0.375 0.253906 L 0.6875 0.648438 C 1.085938 0.320312 1.421875 -0.0859375 1.679688 -0.578125 C 1.945312 -0.140625 2.253906 0.152344 2.59375 0.308594 C 2.988281 0.472656 3.734375 0.558594 4.832031 0.558594 C 5.214844 0.566406 5.640625 0.574219 6.121094 0.574219 L 6.253906 0.121094 C 5.859375 0.132812 5.375 0.140625 4.800781 0.140625 C 4.359375 0.140625 3.972656 0.121094 3.652344 0.09375 L 3.652344 -0.792969 L 5.574219 -0.792969 L 5.574219 -1.21875 L 3.652344 -1.21875 L 3.652344 -1.972656 L 6.285156 -1.972656 L 6.285156 -2.414062 L 0.386719 -2.414062 L 0.386719 -1.972656 Z "/>
</g>
<g id="glyph-0-14">
<path d="M 0.78125 -3.671875 L 0.453125 -3.367188 C 0.867188 -2.800781 1.246094 -2.246094 1.578125 -1.714844 C 1.273438 -0.972656 0.851562 -0.332031 0.308594 0.214844 L 0.601562 0.558594 C 1.125 0.0390625 1.554688 -0.554688 1.875 -1.234375 C 2.125 -0.808594 2.347656 -0.386719 2.546875 0.0273438 L 2.894531 -0.3125 C 2.652344 -0.792969 2.378906 -1.265625 2.085938 -1.746094 C 2.394531 -2.558594 2.566406 -3.480469 2.613281 -4.507812 L 2.613281 -4.859375 L 0.5 -4.859375 L 0.5 -4.40625 L 2.167969 -4.40625 C 2.113281 -3.621094 1.988281 -2.898438 1.773438 -2.246094 C 1.464844 -2.71875 1.132812 -3.195312 0.78125 -3.671875 Z M 2.960938 -1.039062 L 2.960938 -0.601562 L 5.207031 -0.601562 L 5.207031 -1.039062 Z M 4.292969 -4.171875 L 3.980469 -3.980469 C 4.234375 -3.695312 4.433594 -3.433594 4.582031 -3.199219 L 4.886719 -3.421875 C 4.753906 -3.632812 4.554688 -3.886719 4.292969 -4.171875 Z M 3.679688 -2.1875 L 3.679688 -4.425781 L 5.355469 -4.425781 C 5.3125 -3.660156 5.265625 -3.214844 5.207031 -3.09375 C 5.140625 -2.980469 5.035156 -2.921875 4.878906 -2.921875 C 4.746094 -2.921875 4.59375 -2.925781 4.421875 -2.933594 L 4.558594 -2.527344 L 4.878906 -2.527344 C 5.214844 -2.527344 5.441406 -2.632812 5.566406 -2.839844 C 5.6875 -3.046875 5.773438 -3.726562 5.832031 -4.875 L 4.3125 -4.875 C 4.394531 -5.046875 4.460938 -5.234375 4.507812 -5.433594 L 4.035156 -5.5 C 3.988281 -5.285156 3.921875 -5.074219 3.832031 -4.875 L 3.21875 -4.875 L 3.21875 -1.746094 L 5.78125 -1.746094 C 5.78125 -0.734375 5.726562 -0.152344 5.621094 0.0078125 C 5.519531 0.140625 5.359375 0.214844 5.132812 0.214844 C 4.933594 0.214844 4.679688 0.207031 4.378906 0.199219 L 4.519531 0.648438 L 5.125 0.648438 C 5.519531 0.648438 5.800781 0.535156 5.96875 0.320312 C 6.140625 0.0859375 6.234375 -0.746094 6.242188 -2.1875 Z "/>
</g>
<g id="glyph-0-15">
<path d="M 3.554688 -3.488281 L 3.554688 -3.074219 L 5.425781 -3.074219 L 5.425781 -3.488281 C 5.652344 -3.238281 5.90625 -3.007812 6.195312 -2.785156 L 6.453125 -3.1875 C 5.625 -3.828125 5.039062 -4.566406 4.707031 -5.421875 L 4.265625 -5.421875 C 3.867188 -4.492188 3.285156 -3.738281 2.539062 -3.160156 L 2.792969 -2.773438 C 3.058594 -2.980469 3.3125 -3.21875 3.554688 -3.488281 Z M 5.40625 -3.511719 L 3.574219 -3.511719 C 3.921875 -3.914062 4.21875 -4.394531 4.488281 -4.953125 C 4.714844 -4.433594 5.019531 -3.953125 5.40625 -3.511719 Z M 2.734375 -0.0273438 L 2.734375 0.433594 L 6.375 0.433594 L 6.375 -0.0273438 L 5.367188 -0.0273438 C 5.632812 -0.761719 5.855469 -1.601562 6.039062 -2.546875 L 5.582031 -2.660156 C 5.378906 -1.613281 5.152344 -0.734375 4.898438 -0.0273438 Z M 3.347656 -2.464844 L 2.933594 -2.328125 C 3.167969 -1.726562 3.359375 -1.105469 3.507812 -0.453125 L 3.921875 -0.554688 C 3.746094 -1.273438 3.558594 -1.914062 3.347656 -2.464844 Z M 4.375 -2.660156 L 3.960938 -2.535156 C 4.160156 -1.960938 4.320312 -1.359375 4.441406 -0.738281 L 4.859375 -0.839844 C 4.714844 -1.527344 4.554688 -2.132812 4.375 -2.660156 Z M 1.988281 -4.699219 L 1.695312 -2.394531 L 0.90625 -2.394531 L 1.171875 -4.226562 L 0.734375 -4.253906 L 0.421875 -1.964844 L 2.121094 -1.964844 C 2.121094 -0.953125 2.082031 -0.347656 2.011719 -0.132812 C 1.945312 0.0664062 1.753906 0.171875 1.433594 0.171875 C 1.339844 0.171875 1.171875 0.160156 0.941406 0.132812 L 1.066406 0.558594 C 1.226562 0.574219 1.386719 0.578125 1.539062 0.578125 C 1.960938 0.578125 2.234375 0.460938 2.367188 0.234375 C 2.492188 0 2.558594 -0.875 2.558594 -2.394531 L 2.148438 -2.394531 L 2.464844 -5.140625 L 0.375 -5.140625 L 0.375 -4.699219 Z M 1.738281 -1.375 C 1.300781 -1.214844 0.78125 -1.085938 0.191406 -0.988281 L 0.253906 -0.535156 C 0.808594 -0.640625 1.300781 -0.773438 1.738281 -0.941406 Z "/>
</g>
<g id="glyph-0-16">
<path d="M 4.425781 -4.660156 L 4.425781 -0.0351562 L 3.492188 -0.0351562 L 3.492188 -3.558594 L 3.027344 -3.558594 L 3.027344 -0.0351562 L 2.347656 -0.0351562 L 2.347656 0.441406 L 6.425781 0.441406 L 6.425781 -0.0351562 L 4.914062 -0.0351562 L 4.914062 -2.339844 L 6.199219 -2.339844 L 6.199219 -2.785156 L 4.914062 -2.785156 L 4.914062 -4.660156 L 6.292969 -4.660156 L 6.292969 -5.132812 L 2.554688 -5.132812 L 2.554688 -4.660156 Z M 1.105469 -5.378906 L 0.773438 -5.066406 C 1.238281 -4.699219 1.605469 -4.355469 1.878906 -4.019531 L 2.207031 -4.355469 C 1.90625 -4.695312 1.539062 -5.035156 1.105469 -5.378906 Z M 0.292969 -3.40625 L 0.292969 -2.945312 L 1.261719 -2.945312 L 1.261719 -0.351562 C 1.261719 -0.246094 1.214844 -0.152344 1.121094 -0.0742188 L 1.308594 0.359375 C 1.738281 0.0585938 2.148438 -0.28125 2.535156 -0.652344 L 2.40625 -1.167969 C 2.160156 -0.925781 1.933594 -0.714844 1.71875 -0.527344 L 1.71875 -3.40625 Z "/>
</g>
<g id="glyph-0-17">
<path d="M 1.667969 -4.058594 C 1.546875 -4.058594 1.453125 -4.019531 1.375 -3.933594 C 1.292969 -3.859375 1.261719 -3.765625 1.261719 -3.648438 C 1.261719 -3.535156 1.292969 -3.441406 1.375 -3.359375 C 1.453125 -3.28125 1.546875 -3.238281 1.667969 -3.238281 C 1.78125 -3.238281 1.878906 -3.28125 1.960938 -3.359375 C 2.039062 -3.441406 2.082031 -3.535156 2.082031 -3.648438 C 2.082031 -3.765625 2.039062 -3.859375 1.960938 -3.933594 C 1.878906 -4.019531 1.78125 -4.058594 1.667969 -4.058594 Z M 1.667969 -1.621094 C 1.546875 -1.621094 1.453125 -1.578125 1.375 -1.492188 C 1.292969 -1.421875 1.261719 -1.328125 1.261719 -1.207031 C 1.261719 -1.09375 1.292969 -1 1.375 -0.921875 C 1.453125 -0.839844 1.546875 -0.800781 1.667969 -0.800781 C 1.78125 -0.800781 1.878906 -0.839844 1.960938 -0.921875 C 2.039062 -1 2.082031 -1.09375 2.082031 -1.207031 C 2.082031 -1.328125 2.039062 -1.421875 1.960938 -1.492188 C 1.878906 -1.578125 1.78125 -1.621094 1.667969 -1.621094 Z "/>
</g>
<g id="glyph-0-18">
<path d="M 1.046875 -3.148438 L 1.773438 -3.148438 L 1.773438 -2.019531 L 1.046875 -2.019531 Z M 1.773438 -3.582031 L 1.046875 -3.582031 L 1.046875 -4.738281 L 1.773438 -4.738281 Z M 1.039062 -1.578125 L 1.773438 -1.578125 L 1.773438 0.0351562 C 1.773438 0.171875 1.699219 0.246094 1.558594 0.246094 C 1.445312 0.246094 1.328125 0.238281 1.199219 0.234375 L 1.308594 0.648438 L 1.695312 0.648438 C 2.035156 0.648438 2.207031 0.492188 2.207031 0.1875 L 2.207031 -5.167969 L 0.605469 -5.167969 L 0.605469 -1.878906 C 0.601562 -0.972656 0.488281 -0.234375 0.261719 0.347656 L 0.605469 0.660156 C 0.859375 0.0742188 1.007812 -0.671875 1.039062 -1.578125 Z M 3.1875 -5.328125 L 3.1875 -4.347656 L 2.511719 -4.347656 L 2.511719 -3.914062 L 3.1875 -3.914062 L 3.1875 -2.734375 L 2.394531 -2.734375 L 2.394531 -2.300781 L 3.121094 -2.300781 C 2.925781 -1.613281 2.734375 -0.988281 2.546875 -0.414062 C 2.511719 -0.339844 2.460938 -0.292969 2.386719 -0.28125 L 2.480469 0.140625 C 3.125 0.0351562 3.621094 -0.0742188 3.960938 -0.171875 L 4.066406 0.351562 L 4.433594 0.207031 C 4.332031 -0.339844 4.1875 -0.953125 4 -1.625 L 3.625 -1.519531 C 3.714844 -1.214844 3.792969 -0.894531 3.875 -0.558594 C 3.605469 -0.480469 3.300781 -0.40625 2.960938 -0.339844 C 3.121094 -0.8125 3.3125 -1.464844 3.539062 -2.300781 L 4.40625 -2.300781 L 4.40625 -2.734375 L 3.632812 -2.734375 L 3.632812 -3.914062 L 4.308594 -3.914062 L 4.308594 -4.347656 L 3.632812 -4.347656 L 3.632812 -5.328125 Z M 5.648438 -0.0742188 C 5.96875 -0.0742188 6.132812 -0.253906 6.132812 -0.605469 L 6.132812 -5.09375 L 4.625 -5.09375 L 4.625 0.660156 L 5.046875 0.660156 L 5.046875 -4.671875 L 5.707031 -4.671875 L 5.707031 -0.695312 C 5.707031 -0.558594 5.632812 -0.488281 5.5 -0.488281 L 5.199219 -0.507812 L 5.320312 -0.0742188 Z "/>
</g>
<g id="glyph-0-19">
<path d="M 4.386719 -3.96875 L 5.375 -3.96875 C 5.347656 -3.066406 5.207031 -2.28125 4.945312 -1.605469 C 4.679688 -2.167969 4.46875 -2.839844 4.300781 -3.621094 Z M 4.726562 -1.125 C 4.421875 -0.558594 4.011719 -0.101562 3.492188 0.261719 L 3.738281 0.660156 C 4.238281 0.300781 4.652344 -0.148438 4.972656 -0.679688 C 5.308594 -0.121094 5.707031 0.332031 6.171875 0.667969 L 6.433594 0.273438 C 5.953125 -0.0546875 5.546875 -0.511719 5.199219 -1.113281 C 5.574219 -1.898438 5.78125 -2.851562 5.8125 -3.96875 L 6.246094 -3.96875 L 6.246094 -4.425781 L 4.488281 -4.425781 C 4.539062 -4.71875 4.59375 -5.039062 4.632812 -5.378906 L 4.167969 -5.460938 C 4.035156 -4.195312 3.765625 -3.1875 3.375 -2.441406 L 3.671875 -2.074219 C 3.8125 -2.3125 3.945312 -2.585938 4.066406 -2.894531 C 4.246094 -2.226562 4.46875 -1.640625 4.726562 -1.125 Z M 1.566406 -2.347656 C 1.519531 -2.214844 1.464844 -2.074219 1.40625 -1.925781 L 0.433594 -1.925781 L 0.433594 -1.507812 L 1.21875 -1.507812 C 1.085938 -1.238281 0.933594 -0.964844 0.761719 -0.671875 C 1.085938 -0.554688 1.394531 -0.425781 1.6875 -0.300781 C 1.300781 -0.078125 0.828125 0.101562 0.28125 0.246094 L 0.507812 0.648438 C 1.171875 0.460938 1.726562 0.214844 2.167969 -0.09375 C 2.558594 0.078125 2.898438 0.261719 3.195312 0.433594 L 3.453125 0.0585938 C 3.160156 -0.101562 2.851562 -0.246094 2.535156 -0.394531 C 2.878906 -0.714844 3.125 -1.09375 3.273438 -1.535156 L 3.273438 -1.925781 L 1.878906 -1.925781 C 1.921875 -2.046875 1.964844 -2.167969 2.011719 -2.292969 Z M 2.09375 -0.578125 C 1.851562 -0.679688 1.601562 -0.773438 1.332031 -0.867188 C 1.464844 -1.066406 1.585938 -1.28125 1.695312 -1.507812 L 2.839844 -1.507812 C 2.679688 -1.160156 2.425781 -0.847656 2.09375 -0.578125 Z M 0.960938 -5.320312 L 0.578125 -5.195312 C 0.738281 -4.941406 0.886719 -4.652344 1.027344 -4.328125 L 1.375 -4.488281 C 1.253906 -4.78125 1.121094 -5.058594 0.960938 -5.320312 Z M 2.988281 -5.339844 C 2.867188 -5.058594 2.695312 -4.78125 2.480469 -4.492188 L 2.820312 -4.320312 C 3.035156 -4.601562 3.199219 -4.886719 3.332031 -5.179688 Z M 0.445312 -4.167969 L 0.445312 -3.746094 L 1.394531 -3.746094 C 1.195312 -3.378906 0.832031 -3.046875 0.320312 -2.746094 L 0.554688 -2.359375 C 1.125 -2.746094 1.527344 -3.199219 1.746094 -3.726562 L 1.746094 -2.460938 L 2.195312 -2.460938 L 2.195312 -3.328125 C 2.433594 -3.167969 2.71875 -2.953125 3.054688 -2.6875 L 3.300781 -3.058594 C 2.925781 -3.285156 2.554688 -3.492188 2.195312 -3.671875 L 2.195312 -3.746094 L 3.40625 -3.746094 L 3.40625 -4.167969 L 2.195312 -4.167969 L 2.195312 -5.441406 L 1.746094 -5.441406 L 1.746094 -4.167969 Z "/>
</g>
<g id="glyph-0-20">
<path d="M 3.28125 -4.625 L 3.28125 -0.09375 L 1.878906 -0.09375 L 1.878906 -3.292969 L 1.414062 -3.292969 L 1.414062 -0.09375 L 0.367188 -0.09375 L 0.367188 0.375 L 6.308594 0.375 L 6.308594 -0.09375 L 3.765625 -0.09375 L 3.765625 -2.226562 L 5.6875 -2.226562 L 5.6875 -2.6875 L 3.765625 -2.6875 L 3.765625 -4.625 L 6.027344 -4.625 L 6.027344 -5.101562 L 0.761719 -5.101562 L 0.761719 -4.625 Z "/>
</g>
<g id="glyph-0-21">
<path d="M 1.421875 -5.519531 C 1.347656 -5.058594 1.265625 -4.613281 1.171875 -4.171875 L 0.367188 -4.171875 L 0.367188 -3.714844 L 1.074219 -3.714844 C 0.914062 -3.035156 0.734375 -2.398438 0.527344 -1.8125 C 0.898438 -1.539062 1.246094 -1.28125 1.554688 -1.035156 C 1.238281 -0.511719 0.832031 -0.0742188 0.328125 0.292969 L 0.652344 0.695312 C 1.167969 0.300781 1.59375 -0.171875 1.925781 -0.726562 C 2.261719 -0.445312 2.546875 -0.191406 2.773438 0.046875 L 3.101562 -0.332031 C 2.851562 -0.574219 2.539062 -0.847656 2.152344 -1.148438 C 2.527344 -1.925781 2.746094 -2.847656 2.808594 -3.898438 L 2.808594 -4.171875 L 1.652344 -4.171875 C 1.734375 -4.574219 1.8125 -5.011719 1.894531 -5.480469 Z M 1.765625 -1.441406 C 1.546875 -1.601562 1.308594 -1.773438 1.054688 -1.953125 C 1.226562 -2.421875 1.394531 -3.007812 1.554688 -3.714844 L 2.332031 -3.714844 C 2.273438 -2.859375 2.085938 -2.101562 1.765625 -1.441406 Z M 3.035156 -2.648438 L 3.035156 -2.179688 L 4.539062 -2.179688 L 4.539062 -0.191406 C 4.539062 0.0351562 4.460938 0.148438 4.308594 0.148438 C 3.988281 0.148438 3.6875 0.140625 3.414062 0.140625 L 3.539062 0.59375 L 4.5 0.59375 C 4.847656 0.59375 5.027344 0.378906 5.027344 -0.046875 L 5.027344 -2.179688 L 6.386719 -2.179688 L 6.386719 -2.648438 L 5.027344 -2.648438 L 5.027344 -3.339844 C 5.425781 -3.738281 5.792969 -4.171875 6.113281 -4.632812 L 6.113281 -5.101562 L 3.226562 -5.101562 L 3.226562 -4.632812 L 5.566406 -4.632812 C 5.242188 -4.179688 4.898438 -3.800781 4.539062 -3.488281 L 4.539062 -2.648438 Z "/>
</g>
<g id="glyph-1-0">
<path d="M 0.199219 -0.0742188 C 0.992188 -0.898438 1.53125 -1.503906 1.816406 -1.890625 C 2.101562 -2.277344 2.242188 -2.652344 2.242188 -3.019531 C 2.242188 -3.339844 2.15625 -3.585938 1.984375 -3.753906 C 1.808594 -3.921875 1.601562 -4.007812 1.359375 -4.007812 C 1.0625 -4.007812 0.824219 -3.898438 0.636719 -3.683594 C 0.535156 -3.5625 0.4375 -3.378906 0.34375 -3.132812 L 0.207031 -3.160156 C 0.3125 -3.660156 0.496094 -4.007812 0.757812 -4.199219 C 1.015625 -4.394531 1.292969 -4.492188 1.59375 -4.492188 C 1.960938 -4.492188 2.253906 -4.375 2.480469 -4.144531 C 2.707031 -3.914062 2.824219 -3.632812 2.824219 -3.296875 C 2.824219 -2.941406 2.699219 -2.597656 2.453125 -2.269531 C 2.207031 -1.9375 1.675781 -1.351562 0.855469 -0.507812 L 2.351562 -0.507812 C 2.558594 -0.507812 2.707031 -0.53125 2.789062 -0.582031 C 2.875 -0.632812 2.96875 -0.753906 3.078125 -0.949219 L 3.160156 -0.910156 L 2.800781 0 L 0.199219 0 Z "/>
</g>
<g id="glyph-1-1">
<path d="M 1.945312 -3.800781 L 0.34375 -1.542969 L 1.945312 -1.542969 Z M 2.160156 -4.472656 L 2.46875 -4.472656 L 2.46875 -1.542969 L 3.148438 -1.542969 L 3.148438 -1.109375 L 2.46875 -1.109375 L 2.46875 0 L 1.949219 0 L 1.949219 -1.109375 L 0.0742188 -1.109375 L 0.0742188 -1.542969 Z "/>
</g>
<g id="glyph-1-2">
<path d="M 1.972656 -4.472656 C 1.980469 -4.460938 1.984375 -4.453125 1.988281 -4.449219 C 1.988281 -4.441406 1.988281 -4.429688 1.988281 -4.410156 L 1.988281 -0.492188 C 1.988281 -0.324219 2.035156 -0.21875 2.121094 -0.171875 C 2.210938 -0.125 2.378906 -0.101562 2.621094 -0.0898438 L 2.621094 0 L 0.785156 0 L 0.785156 -0.0976562 C 1.046875 -0.109375 1.21875 -0.148438 1.300781 -0.207031 C 1.378906 -0.265625 1.417969 -0.390625 1.417969 -0.585938 L 1.417969 -3.601562 C 1.417969 -3.703125 1.40625 -3.785156 1.378906 -3.839844 C 1.355469 -3.894531 1.296875 -3.917969 1.210938 -3.917969 C 1.15625 -3.917969 1.082031 -3.902344 0.992188 -3.871094 C 0.902344 -3.839844 0.816406 -3.808594 0.738281 -3.773438 L 0.738281 -3.863281 L 1.933594 -4.472656 Z "/>
</g>
<g id="glyph-1-3">
<path d="M 0.519531 -0.566406 C 0.636719 -0.566406 0.792969 -0.503906 0.992188 -0.382812 C 1.1875 -0.257812 1.355469 -0.195312 1.492188 -0.195312 C 1.796875 -0.195312 2.019531 -0.296875 2.167969 -0.503906 C 2.316406 -0.707031 2.390625 -0.929688 2.390625 -1.171875 C 2.390625 -1.402344 2.328125 -1.609375 2.210938 -1.785156 C 2.007812 -2.082031 1.667969 -2.230469 1.1875 -2.230469 C 1.160156 -2.230469 1.132812 -2.230469 1.105469 -2.226562 C 1.082031 -2.226562 1.050781 -2.222656 1.015625 -2.21875 L 1.007812 -2.304688 C 1.355469 -2.429688 1.628906 -2.574219 1.828125 -2.738281 C 2.027344 -2.902344 2.128906 -3.117188 2.128906 -3.382812 C 2.128906 -3.617188 2.050781 -3.800781 1.894531 -3.921875 C 1.734375 -4.046875 1.554688 -4.109375 1.355469 -4.109375 C 1.117188 -4.109375 0.90625 -4.019531 0.722656 -3.84375 C 0.621094 -3.75 0.515625 -3.601562 0.402344 -3.402344 L 0.300781 -3.425781 C 0.386719 -3.753906 0.546875 -4.019531 0.785156 -4.214844 C 1.019531 -4.414062 1.292969 -4.511719 1.605469 -4.511719 C 1.9375 -4.511719 2.195312 -4.421875 2.375 -4.238281 C 2.554688 -4.054688 2.648438 -3.84375 2.648438 -3.605469 C 2.648438 -3.394531 2.570312 -3.203125 2.421875 -3.027344 C 2.335938 -2.925781 2.207031 -2.816406 2.027344 -2.691406 C 2.234375 -2.601562 2.402344 -2.5 2.53125 -2.378906 C 2.765625 -2.152344 2.882812 -1.863281 2.882812 -1.515625 C 2.882812 -1.101562 2.722656 -0.738281 2.398438 -0.421875 C 2.074219 -0.109375 1.613281 0.0507812 1.011719 0.0507812 C 0.746094 0.0507812 0.558594 0.0078125 0.449219 -0.0703125 C 0.34375 -0.148438 0.289062 -0.234375 0.289062 -0.324219 C 0.289062 -0.382812 0.308594 -0.4375 0.34375 -0.488281 C 0.378906 -0.539062 0.4375 -0.566406 0.519531 -0.566406 Z "/>
</g>
<g id="glyph-1-4">
<path d="M 1.664062 -1.867188 C 1.8125 -1.867188 1.964844 -1.90625 2.121094 -1.988281 C 2.277344 -2.070312 2.367188 -2.140625 2.390625 -2.199219 C 2.398438 -2.21875 2.40625 -2.300781 2.414062 -2.441406 C 2.417969 -2.582031 2.421875 -2.691406 2.421875 -2.78125 C 2.421875 -3.230469 2.347656 -3.597656 2.195312 -3.878906 C 2.042969 -4.160156 1.820312 -4.304688 1.527344 -4.304688 C 1.3125 -4.304688 1.140625 -4.207031 1.011719 -4.015625 C 0.878906 -3.820312 0.8125 -3.53125 0.8125 -3.148438 C 0.8125 -2.832031 0.875 -2.539062 0.996094 -2.269531 C 1.121094 -2 1.34375 -1.867188 1.664062 -1.867188 Z M 1.574219 -4.488281 C 2.050781 -4.488281 2.417969 -4.296875 2.679688 -3.917969 C 2.941406 -3.535156 3.070312 -3.113281 3.070312 -2.644531 C 3.070312 -2.3125 3.007812 -1.976562 2.882812 -1.636719 C 2.761719 -1.296875 2.582031 -0.992188 2.34375 -0.726562 C 2.066406 -0.417969 1.71875 -0.1875 1.296875 -0.0390625 C 1.058594 0.046875 0.761719 0.109375 0.402344 0.15625 L 0.367188 0.0273438 C 0.59375 -0.0273438 0.78125 -0.0820312 0.929688 -0.140625 C 1.199219 -0.246094 1.417969 -0.375 1.578125 -0.53125 C 1.808594 -0.75 1.992188 -0.996094 2.128906 -1.265625 C 2.269531 -1.535156 2.355469 -1.761719 2.390625 -1.945312 L 2.277344 -1.859375 C 2.117188 -1.738281 1.925781 -1.652344 1.710938 -1.609375 C 1.597656 -1.582031 1.492188 -1.570312 1.398438 -1.570312 C 1.03125 -1.570312 0.738281 -1.699219 0.523438 -1.960938 C 0.308594 -2.222656 0.199219 -2.535156 0.199219 -2.898438 C 0.199219 -3.359375 0.328125 -3.742188 0.585938 -4.039062 C 0.84375 -4.339844 1.171875 -4.488281 1.574219 -4.488281 Z "/>
</g>
</g>
</defs>
<g fill="rgb(100%, 100%, 100%)" fill-opacity="1">
<use xlink:href="#glyph-0-0" x="30" y="27.067383"/>
<use xlink:href="#glyph-0-1" x="37" y="27.067383"/>
<use xlink:href="#glyph-0-2" x="44" y="27.067383"/>
<use xlink:href="#glyph-0-3" x="51" y="27.067383"/>
<use xlink:href="#glyph-0-4" x="58" y="27.067383"/>
</g>
<g fill="rgb(100%, 100%, 100%)" fill-opacity="1">
<use xlink:href="#glyph-1-0" x="65" y="26.746094"/>
</g>
<g fill="rgb(100%, 100%, 100%)" fill-opacity="1">
<use xlink:href="#glyph-0-5" x="68" y="27.067383"/>
<use xlink:href="#glyph-0-6" x="75" y="27.067383"/>
<use xlink:href="#glyph-0-7" x="82" y="27.067383"/>
</g>
<g fill="rgb(100%, 100%, 100%)" fill-opacity="1">
<use xlink:href="#glyph-1-0" x="89" y="26.746094"/>
<use xlink:href="#glyph-1-1" x="92" y="26.746094"/>
</g>
<g fill="rgb(100%, 100%, 100%)" fill-opacity="1">
<use xlink:href="#glyph-0-5" x="95" y="27.067383"/>
<use xlink:href="#glyph-0-6" x="102" y="27.067383"/>
<use xlink:href="#glyph-0-8" x="109" y="27.067383"/>
<use xlink:href="#glyph-0-9" x="116" y="27.067383"/>
</g>
<g fill="rgb(100%, 100%, 100%)" fill-opacity="1">
<use xlink:href="#glyph-1-2" x="123" y="26.746094"/>
<use xlink:href="#glyph-1-0" x="126" y="26.746094"/>
</g>
<g fill="rgb(100%, 100%, 100%)" fill-opacity="1">
<use xlink:href="#glyph-0-1" x="129" y="27.067383"/>
<use xlink:href="#glyph-0-2" x="136" y="27.067383"/>
<use xlink:href="#glyph-0-3" x="143" y="27.067383"/>
<use xlink:href="#glyph-0-10" x="150" y="27.067383"/>
<use xlink:href="#glyph-0-11" x="157" y="27.067383"/>
<use xlink:href="#glyph-0-12" x="164" y="27.067383"/>
</g>
<g fill="rgb(100%, 100%, 100%)" fill-opacity="1">
<use xlink:href="#glyph-1-0" x="171" y="26.746094"/>
<use xlink:href="#glyph-1-3" x="174" y="26.746094"/>
</g>
<g fill="rgb(100%, 100%, 100%)" fill-opacity="1">
<use xlink:href="#glyph-0-1" x="177" y="27.067383"/>
<use xlink:href="#glyph-0-13" x="184" y="27.067383"/>
<use xlink:href="#glyph-0-14" x="191" y="27.067383"/>
<use xlink:href="#glyph-0-10" x="198" y="27.067383"/>
<use xlink:href="#glyph-0-15" x="205" y="27.067383"/>
<use xlink:href="#glyph-0-16" x="212" y="27.067383"/>
<use xlink:href="#glyph-0-17" x="219" y="27.067383"/>
</g>
<g fill="rgb(100%, 100%, 100%)" fill-opacity="1">
<use xlink:href="#glyph-1-2" x="226" y="26.746094"/>
<use xlink:href="#glyph-1-0" x="229" y="26.746094"/>
</g>
<g fill="rgb(100%, 100%, 100%)" fill-opacity="1">
<use xlink:href="#glyph-0-2" x="232" y="27.067383"/>
</g>
<g fill="rgb(100%, 100%, 100%)" fill-opacity="1">
<use xlink:href="#glyph-1-0" x="239" y="26.746094"/>
<use xlink:href="#glyph-1-3" x="242" y="26.746094"/>
</g>
<g fill="rgb(100%, 100%, 100%)" fill-opacity="1">
<use xlink:href="#glyph-0-14" x="245" y="27.067383"/>
<use xlink:href="#glyph-0-7" x="252" y="27.067383"/>
<use xlink:href="#glyph-0-18" x="259" y="27.067383"/>
<use xlink:href="#glyph-0-19" x="266" y="27.067383"/>
<use xlink:href="#glyph-0-20" x="273" y="27.067383"/>
<use xlink:href="#glyph-0-21" x="280" y="27.067383"/>
</g>
<g fill="rgb(100%, 100%, 100%)" fill-opacity="1">
<use xlink:href="#glyph-1-4" x="287" y="26.746094"/>
<use xlink:href="#glyph-1-1" x="290" y="26.746094"/>
</g>
<g fill="rgb(100%, 100%, 100%)" fill-opacity="1">
<use xlink:href="#glyph-0-10" x="293" y="27.067383"/>
</g>
</svg>
